<?xml version="1.0" standalone="no"?>
<!DOCTYPE svg PUBLIC "-//W3C//DTD SVG 20010904//EN"
 "http://www.w3.org/TR/2001/REC-SVG-20010904/DTD/svg10.dtd">
<svg version="1.0" xmlns="http://www.w3.org/2000/svg"
 width="226.000000pt" height="226.000000pt" viewBox="0 0 226.000000 226.000000"
 preserveAspectRatio="xMidYMid meet">
<metadata>
Created by potrace 1.16, written by Peter Selinger 2001-2019
</metadata>
<g transform="translate(0.000000,226.000000) scale(0.100000,-0.100000)"
fill="#000000" stroke="none">
<path d="M1032 1960 c-102 -14 -212 -49 -297 -93 -63 -33 -104 -66 -191 -152
-99 -98 -116 -120 -157 -205 -49 -100 -87 -235 -87 -307 l0 -43 254 0 255 0 6
23 c33 123 74 178 169 227 61 31 78 35 146 35 68 0 85 -4 146 -35 95 -49 136
-104 169 -227 l6 -23 255 0 254 0 0 43 c0 72 -38 207 -87 307 -41 85 -58 107
-157 205 -88 87 -128 119 -193 153 -140 73 -345 112 -491 92z"/>
<path d="M1060 1327 c-52 -17 -114 -84 -129 -140 -43 -152 97 -298 247 -259
159 43 213 232 98 347 -60 59 -135 78 -216 52z"/>
<path d="M300 1058 c0 -73 38 -208 87 -308 41 -85 58 -107 157 -205 88 -87
128 -119 193 -153 241 -126 545 -126 786 0 65 34 105 66 193 153 99 98 116
120 157 205 49 100 87 235 87 308 l0 42 -255 0 c-196 0 -256 -3 -259 -12 -2
-7 -9 -34 -16 -59 -19 -74 -75 -138 -154 -179 -61 -31 -78 -35 -146 -35 -68 0
-85 4 -146 35 -79 41 -135 105 -154 179 -7 25 -14 52 -16 59 -3 9 -63 12 -259
12 l-255 0 0 -42z"/>
</g>
</svg>
