<?xml version="1.0" encoding="utf-8"?>
<!-- Generator: Adobe Illustrator 23.0.3, SVG Export Plug-In . SVG Version: 6.00 Build 0)  -->
<svg version="1.1" id="Icons" xmlns="http://www.w3.org/2000/svg" xmlns:xlink="http://www.w3.org/1999/xlink" x="0px" y="0px"
	 viewBox="0 0 32 32" style="enable-background:new 0 0 32 32;" xml:space="preserve">
<g>
	<path d="M3,8h16.1c0.4,1.7,2,3,3.9,3s3.4-1.3,3.9-3H29c0.6,0,1-0.4,1-1s-0.4-1-1-1h-2.1c-0.4-1.7-2-3-3.9-3s-3.4,1.3-3.9,3H3
		C2.4,6,2,6.4,2,7S2.4,8,3,8z"/>
	<path d="M29,15H15.9c-0.4-1.7-2-3-3.9-3s-3.4,1.3-3.9,3H3c-0.6,0-1,0.4-1,1s0.4,1,1,1h5.1c0.4,1.7,2,3,3.9,3s3.4-1.3,3.9-3H29
		c0.6,0,1-0.4,1-1S29.6,15,29,15z"/>
	<path d="M29,24h-2.1c-0.4-1.7-2-3-3.9-3s-3.4,1.3-3.9,3H3c-0.6,0-1,0.4-1,1s0.4,1,1,1h16.1c0.4,1.7,2,3,3.9,3s3.4-1.3,3.9-3H29
		c0.6,0,1-0.4,1-1S29.6,24,29,24z"/>
</g>
</svg>
